<svg viewBox="0 0 30 30" fill="none" xmlns="http://www.w3.org/2000/svg">
<path d="M14.8691 0.00057214C14.9651 -0.000266183 15.0611 -0.000183339 15.1571 0.000821279L15 15L14.8691 0.00057214Z" fill="#FF0000"/>
<path d="M15.1309 0.000732422C15.2269 0.00157007 15.3229 0.00332905 15.4189 0.00600929L15 15.0001L15.1309 0.000732422Z" fill="#FF0400"/>
<path d="M15.3926 0.00512695C15.4886 0.0076397 15.5845 0.0110732 15.6804 0.0154277L15 14.9999L15.3926 0.00512695Z" fill="#FF0900"/>
<path d="M15.6542 0.0144043C15.7501 0.0185915 15.846 0.0236992 15.9418 0.0297267L15 15L15.6542 0.0144043Z" fill="#FF0D00"/>
<path d="M15.9157 0.0280762C16.0115 0.0339365 16.1072 0.0407166 16.2029 0.0484152L15 15.0001L15.9157 0.0280762Z" fill="#FF1100"/>
<path d="M16.1769 0.0463867C16.2726 0.0539182 16.3683 0.0623684 16.4638 0.0717356L15 15.0001L16.1769 0.0463867Z" fill="#FF1500"/>
<path d="M16.4377 0.0690918C16.5333 0.0782924 16.6288 0.0884102 16.7241 0.0994434L15 15L16.4377 0.0690918Z" fill="#FF1A00"/>
<path d="M16.698 0.0964355C16.7934 0.107302 16.8887 0.119084 16.9838 0.13178L15 15L16.698 0.0964355Z" fill="#FF1E00"/>
<path d="M16.9579 0.128418C17.0531 0.140948 17.1481 0.154391 17.243 0.168745L15 15.0002L16.9579 0.128418Z" fill="#FF2200"/>
<path d="M17.2171 0.164795C17.312 0.178984 17.4068 0.194083 17.5015 0.210092L15 14.9999L17.2171 0.164795Z" fill="#FF2600"/>
<path d="M17.4757 0.205811C17.5703 0.221654 17.6649 0.238406 17.7592 0.256064L15 15L17.4757 0.205811Z" fill="#FF2B00"/>
<path d="M17.7336 0.251221C17.828 0.268714 17.9222 0.287113 18.0163 0.306415L15 15L17.7336 0.251221Z" fill="#FF2F00"/>
<path d="M17.9904 0.30127C18.0845 0.320408 18.1784 0.340449 18.2721 0.361389L15 15.0002L17.9904 0.30127Z" fill="#FF3300"/>
<path d="M18.2465 0.355713C18.3402 0.37649 18.4337 0.398166 18.527 0.420738L15 15.0002L18.2465 0.355713Z" fill="#FF3700"/>
<path d="M18.5016 0.414551C18.5949 0.43696 18.688 0.460265 18.7809 0.484462L15 15L18.5016 0.414551Z" fill="#FF3C00"/>
<path d="M18.7557 0.477783C18.8486 0.501818 18.9413 0.526744 19.0338 0.552559L15 15L18.7557 0.477783Z" fill="#FF4000"/>
<path d="M19.0086 0.545654C19.1011 0.571307 19.1933 0.597848 19.2853 0.625272L15 15.0001L19.0086 0.545654Z" fill="#FF4400"/>
<path d="M19.2601 0.617676C19.3522 0.64494 19.444 0.673086 19.5355 0.702112L15 15L19.2601 0.617676Z" fill="#FF4800"/>
<path d="M19.5105 0.694336C19.6021 0.723202 19.6934 0.752946 19.7843 0.783565L15 15.0001L19.5105 0.694336Z" fill="#FF4D00"/>
<path d="M19.7594 0.775146C19.8504 0.805606 19.9411 0.836938 20.0315 0.86914L15 15L19.7594 0.775146Z" fill="#FF5100"/>
<path d="M20.007 0.860352C20.0975 0.892395 20.1877 0.925306 20.2775 0.95908L15 14.9999L20.007 0.860352Z" fill="#FF5500"/>
<path d="M20.253 0.949951C20.3429 0.983569 20.4325 1.01805 20.5218 1.05339L15 14.9999L20.253 0.949951Z" fill="#FF5900"/>
<path d="M20.4975 1.0437C20.5868 1.07888 20.6758 1.11492 20.7644 1.15181L15 14.9999L20.4975 1.0437Z" fill="#FF5E00"/>
<path d="M20.7402 1.14185C20.8289 1.17858 20.9172 1.21617 21.0051 1.2546L15 15L20.7402 1.14185Z" fill="#FF6200"/>
<path d="M20.9811 1.24414C21.0691 1.28242 21.1568 1.32154 21.244 1.3615L15 15L20.9811 1.24414Z" fill="#FF6600"/>
<path d="M21.2205 1.35059C21.3078 1.39039 21.3948 1.43104 21.4814 1.47252L15 15L21.2205 1.35059Z" fill="#FF6A00"/>
<path d="M21.4576 1.46118C21.5443 1.50251 21.6305 1.54467 21.7163 1.58765L15 14.9999L21.4576 1.46118Z" fill="#FF6F00"/>
<path d="M21.693 1.57593C21.7789 1.61876 21.8644 1.66242 21.9495 1.70689L15 15L21.693 1.57593Z" fill="#FF7300"/>
<path d="M21.9262 1.69482C22.0114 1.73915 22.0961 1.78429 22.1804 1.83024L15 14.9999L21.9262 1.69482Z" fill="#FF7700"/>
<path d="M22.1573 1.81787C22.2417 1.86368 22.3256 1.91029 22.409 1.9577L15 15.0001L22.1573 1.81787Z" fill="#FF7B00"/>
<path d="M22.3864 1.94482C22.4699 1.99209 22.553 2.04016 22.6356 2.08903L15 15.0001L22.3864 1.94482Z" fill="#FF8000"/>
<path d="M22.613 2.07568C22.6957 2.1244 22.7779 2.17392 22.8597 2.22422L15 15L22.613 2.07568Z" fill="#FF8400"/>
<path d="M22.8375 2.21045C22.9193 2.26061 23.0007 2.31155 23.0816 2.36327L15 15.0001L22.8375 2.21045Z" fill="#FF8800"/>
<path d="M23.0594 2.34912C23.1404 2.4007 23.2208 2.45305 23.3008 2.50617L15 14.9999L23.0594 2.34912Z" fill="#FF8C00"/>
<path d="M23.2791 2.4917C23.3591 2.54468 23.4386 2.59843 23.5177 2.65294L15 14.9999L23.2791 2.4917Z" fill="#FF9100"/>
<path d="M23.496 2.63818C23.5751 2.69255 23.6537 2.74768 23.7318 2.80356L15 15L23.496 2.63818Z" fill="#FF9500"/>
<path d="M23.7105 2.78833C23.7887 2.84407 23.8663 2.90057 23.9434 2.9578L15 15L23.7105 2.78833Z" fill="#FF9900"/>
<path d="M23.9223 2.94214C23.9994 2.99924 24.076 3.05708 24.1521 3.11565L15 15L23.9223 2.94214Z" fill="#FF9D00"/>
<path d="M24.1313 3.09985C24.2075 3.15829 24.2831 3.21746 24.3581 3.27735L15 15.0002L24.1313 3.09985Z" fill="#FFA200"/>
<path d="M24.3377 3.26099C24.4128 3.32074 24.4874 3.38122 24.5614 3.44241L15 15.0002L24.3377 3.26099Z" fill="#FFA600"/>
<path d="M24.5411 3.42578C24.6152 3.48684 24.6886 3.54861 24.7615 3.61108L15 15.0001L24.5411 3.42578Z" fill="#FFAA00"/>
<path d="M24.7416 3.59399C24.8146 3.65634 24.887 3.71938 24.9588 3.78311L15 15L24.7416 3.59399Z" fill="#FFAE00"/>
<path d="M24.9392 3.76562C25.0111 3.82923 25.0824 3.89353 25.153 3.9585L15 15L24.9392 3.76562Z" fill="#FFB300"/>
<path d="M25.1338 3.94092C25.2045 4.00577 25.2747 4.0713 25.3442 4.1375L15 15L25.1338 3.94092Z" fill="#FFB700"/>
<path d="M25.3252 4.11938C25.3949 4.18546 25.4639 4.25221 25.5322 4.31961L15 15L25.3252 4.11938Z" fill="#FFBB00"/>
<path d="M25.3252 4.11938C25.3949 4.18546 25.4639 4.25221 25.5322 4.31961L15 15L25.3252 4.11938Z" fill="#FFBB00"/>
<path d="M25.5136 4.30127C25.5821 4.36855 25.6499 4.43649 25.7171 4.50508L15 15.0001L25.5136 4.30127Z" fill="#FFBF00"/>
<path d="M25.6986 4.48633C25.7659 4.5548 25.8325 4.62391 25.8984 4.69365L15 15L25.6986 4.48633Z" fill="#FFC400"/>
<path d="M25.8805 4.6748C25.9466 4.74444 26.012 4.8147 26.0767 4.88559L15 15.0001L25.8805 4.6748Z" fill="#FFC800"/>
<path d="M26.0591 4.86621C26.1239 4.93698 26.1881 5.00838 26.2516 5.08038L15 15L26.0591 4.86621Z" fill="#FFCC00"/>
<path d="M26.2343 5.06079C26.2979 5.13269 26.3609 5.20519 26.4231 5.27829L15 15L26.2343 5.06079Z" fill="#FFD000"/>
<path d="M26.4061 5.2583C26.4684 5.3313 26.5301 5.40489 26.591 5.47906L15 15.0001L26.4061 5.2583Z" fill="#FFD500"/>
<path d="M26.5742 5.45898C26.6352 5.53306 26.6956 5.60771 26.7552 5.68294L15 15.0002L26.5742 5.45898Z" fill="#FFD900"/>
<path d="M26.739 5.66235C26.7988 5.73748 26.8578 5.81318 26.9161 5.88943L15 15L26.739 5.66235Z" fill="#FFDD00"/>
<path d="M26.9003 5.86865C26.9587 5.94481 27.0164 6.02152 27.0734 6.09879L15 15L26.9003 5.86865Z" fill="#FFE100"/>
<path d="M27.0578 6.07764C27.1149 6.1548 27.1712 6.23251 27.2268 6.31076L15 14.9999L27.0578 6.07764Z" fill="#FFE600"/>
<path d="M27.2116 6.28955C27.2674 6.3677 27.3224 6.44638 27.3766 6.52559L15 15.0001L27.2116 6.28955Z" fill="#FFEA00"/>
<path d="M27.3619 6.50391C27.4163 6.58302 27.4699 6.66265 27.5227 6.74279L15 15L27.3619 6.50391Z" fill="#FFEE00"/>
<path d="M27.5082 6.72095C27.5612 6.80099 27.6134 6.88155 27.6648 6.9626L15 15L27.5082 6.72095Z" fill="#FFF200"/>
<path d="M27.6508 6.94043C27.7024 7.02139 27.7532 7.10284 27.8032 7.18478L15 14.9999L27.6508 6.94043Z" fill="#FFF700"/>
<path d="M27.7896 7.1626C27.8398 7.24445 27.8891 7.32677 27.9377 7.40957L15 15.0001L27.7896 7.1626Z" fill="#FFFB00"/>
<path d="M27.9244 7.38696C27.9731 7.46967 28.021 7.55285 28.0681 7.63648L15 14.9999L27.9244 7.38696Z" fill="#FFFF00"/>
<path d="M28.0553 7.61377C28.1026 7.69732 28.1491 7.78132 28.1947 7.86576L15 15L28.0553 7.61377Z" fill="#FBFF00"/>
<path d="M28.1822 7.84277C28.228 7.92713 28.273 8.01193 28.3171 8.09716L15 15.0002L28.1822 7.84277Z" fill="#F7FF00"/>
<path d="M28.305 8.07373C28.3493 8.15888 28.3928 8.24445 28.4355 8.33043L15 15L28.305 8.07373Z" fill="#F2FF00"/>
<path d="M28.424 8.30713C28.4668 8.39304 28.5089 8.47935 28.55 8.56607L15 15L28.424 8.30713Z" fill="#EEFF00"/>
<path d="M28.5387 8.54248C28.58 8.62912 28.6205 8.71616 28.6602 8.80358L15 15.0001L28.5387 8.54248Z" fill="#EAFF00"/>
<path d="M28.6493 8.77979C28.6891 8.86713 28.7281 8.95486 28.7662 9.04296L15 15.0001L28.6493 8.77979Z" fill="#E6FF00"/>
<path d="M28.7557 9.0188C28.794 9.10683 28.8314 9.19523 28.868 9.28398L15 15L28.7557 9.0188Z" fill="#E1FF00"/>
<path d="M28.8582 9.25977C28.8949 9.34845 28.9308 9.43749 28.9658 9.52686L15 14.9999L28.8582 9.25977Z" fill="#DDFF00"/>
<path d="M28.9561 9.50244C28.9913 9.59175 29.0256 9.6814 29.059 9.77137L15 14.9999L28.9561 9.50244Z" fill="#D9FF00"/>
<path d="M29.0499 9.74707C29.0835 9.83698 29.1163 9.92722 29.1482 10.0178L15 15.0001L29.0499 9.74707Z" fill="#D5FF00"/>
<path d="M29.1395 9.99292C29.1716 10.0834 29.2027 10.1742 29.233 10.2653L15 14.9999L29.1395 9.99292Z" fill="#D0FF00"/>
<path d="M29.2247 10.2405C29.2551 10.3315 29.2847 10.4228 29.3134 10.5144L15 15L29.2247 10.2405Z" fill="#CCFF00"/>
<path d="M29.3057 10.4895C29.3345 10.5811 29.3625 10.6729 29.3896 10.765L15 15L29.3057 10.4895Z" fill="#C8FF00"/>
<path d="M29.3822 10.7397C29.4095 10.8318 29.4358 10.9241 29.4613 11.0166L15 14.9999L29.3822 10.7397Z" fill="#C4FF00"/>
<path d="M29.4543 10.9915C29.4799 11.084 29.5047 11.1767 29.5286 11.2697L15 15L29.4543 10.9915Z" fill="#BFFF00"/>
<path d="M29.5223 11.2444C29.5463 11.3373 29.5695 11.4305 29.5917 11.5239L15 15.0001L29.5223 11.2444Z" fill="#BBFF00"/>
<path d="M29.5856 11.4983C29.6081 11.5916 29.6296 11.6852 29.6502 11.7789L15 15L29.5856 11.4983Z" fill="#B7FF00"/>
<path d="M29.6443 11.7534C29.665 11.8471 29.6849 11.941 29.7039 12.0351L15 14.9999L29.6443 11.7534Z" fill="#B3FF00"/>
<path d="M29.6988 12.0095C29.7179 12.1036 29.7362 12.1978 29.7535 12.2923L15 15.0001L29.6988 12.0095Z" fill="#AEFF00"/>
<path d="M29.7488 12.2666C29.7663 12.361 29.7829 12.4555 29.7986 12.5502L15 15.0001L29.7488 12.2666Z" fill="#AAFF00"/>
<path d="M29.7942 12.5244C29.81 12.6191 29.825 12.7139 29.839 12.8089L15 15.0001L29.7942 12.5244Z" fill="#A6FF00"/>
<path d="M29.8351 12.783C29.8492 12.8779 29.8625 12.973 29.8749 13.0682L15 15L29.8351 12.783Z" fill="#A2FF00"/>
<path d="M29.8717 13.0422C29.8842 13.1374 29.8958 13.2327 29.9065 13.3281L15 15L29.8717 13.0422Z" fill="#9EFF00"/>
<path d="M29.9034 13.302C29.9143 13.3974 29.9242 13.4928 29.9332 13.5884L15 15L29.9034 13.302Z" fill="#99FF00"/>
<path d="M29.931 13.5625C29.9402 13.6581 29.9485 13.7537 29.9559 13.8494L15 15.0002L29.931 13.5625Z" fill="#95FF00"/>
<path d="M29.9538 13.8232C29.9613 13.9189 29.9679 14.0147 29.9736 14.1105L15 15L29.9538 13.8232Z" fill="#91FF00"/>
<path d="M29.9721 14.0842C29.978 14.18 29.9829 14.2759 29.9869 14.3718L15 14.9999L29.9721 14.0842Z" fill="#8CFF00"/>
<path d="M29.9857 14.3457C29.9899 14.4416 29.9932 14.5375 29.9955 14.6335L15 14.9999L29.9857 14.3457Z" fill="#88FF00"/>
<path d="M29.9949 14.6074C29.9974 14.7034 29.999 14.7993 29.9996 14.8953L15 15L29.9949 14.6074Z" fill="#84FF00"/>
<path d="M29.9993 14.8691C30.0002 14.9652 30.0001 15.0612 29.9991 15.1572L15.0001 15.0001L29.9993 14.8691Z" fill="#80FF00"/>
<path d="M29.9995 15.1309C29.9987 15.2269 29.9969 15.3229 29.9942 15.4189L15 15L29.9995 15.1309Z" fill="#7BFF00"/>
<path d="M29.9949 15.3927C29.9923 15.4887 29.9889 15.5846 29.9846 15.6805L15 15L29.9949 15.3927Z" fill="#77FF00"/>
<path d="M29.9857 15.6544C29.9815 15.7503 29.9764 15.8461 29.9704 15.9419L15 15L29.9857 15.6544Z" fill="#73FF00"/>
<path d="M29.9719 15.9158C29.9661 16.0116 29.9593 16.1074 29.9516 16.2031L15 15L29.9719 15.9158Z" fill="#6FFF00"/>
<path d="M29.9538 16.177C29.9462 16.2727 29.9378 16.3683 29.9284 16.4638L15 15L29.9538 16.177Z" fill="#6AFF00"/>
<path d="M29.9309 16.4378C29.9217 16.5333 29.9116 16.6288 29.9006 16.7241L15 15L29.9309 16.4378Z" fill="#66FF00"/>
<path d="M29.9034 16.6981C29.8925 16.7935 29.8807 16.8888 29.8681 16.9839L15 15L29.9034 16.6981Z" fill="#62FF00"/>
<path d="M29.8717 16.958C29.8591 17.0532 29.8457 17.1482 29.8313 17.2431L15 15L29.8717 16.958Z" fill="#5EFF00"/>
<path d="M29.8351 17.2172C29.8209 17.3122 29.8058 17.407 29.7898 17.5016L15 15L29.8351 17.2172Z" fill="#59FF00"/>
<path d="M29.7942 17.4758C29.7784 17.5705 29.7616 17.665 29.7439 17.7594L15 15L29.7942 17.4758Z" fill="#55FF00"/>
<path d="M29.7488 17.7336C29.7313 17.828 29.7129 17.9222 29.6936 18.0163L15 15L29.7488 17.7336Z" fill="#51FF00"/>
<path d="M29.6988 17.9906C29.6796 18.0847 29.6596 18.1786 29.6387 18.2722L15 15L29.6988 17.9906Z" fill="#4DFF00"/>
<path d="M29.6443 18.2467C29.6236 18.3404 29.6019 18.4339 29.5793 18.5272L15 15L29.6443 18.2467Z" fill="#48FF00"/>
<path d="M29.5855 18.5018C29.563 18.5951 29.5397 18.6882 29.5155 18.7811L15 15L29.5855 18.5018Z" fill="#44FF00"/>
<path d="M29.5222 18.7558C29.4982 18.8487 29.4733 18.9414 29.4474 19.0339L15 15L29.5222 18.7558Z" fill="#40FF00"/>
<path d="M29.4545 19.0087C29.4288 19.1012 29.4023 19.1934 29.3748 19.2854L15 15L29.4545 19.0087Z" fill="#3CFF00"/>
<path d="M29.3822 19.2603C29.3549 19.3524 29.3268 19.4441 29.2978 19.5356L15 15L29.3822 19.2603Z" fill="#37FF00"/>
<path d="M29.3056 19.5107C29.2767 19.6022 29.247 19.6935 29.2163 19.7845L15 15L29.3056 19.5107Z" fill="#33FF00"/>
<path d="M29.2248 19.7595C29.1943 19.8505 29.163 19.9412 29.1308 20.0317L15 15L29.2248 19.7595Z" fill="#2FFF00"/>
<path d="M29.1395 20.0072C29.1075 20.0977 29.0746 20.1879 29.0408 20.2777L15 15L29.1395 20.0072Z" fill="#2BFF00"/>
<path d="M29.05 20.2532C29.0164 20.3431 28.9819 20.4327 28.9466 20.522L15 15L29.05 20.2532Z" fill="#26FF00"/>
<path d="M28.9563 20.4976C28.9211 20.5869 28.885 20.6759 28.8482 20.7645L15 15L28.9563 20.4976Z" fill="#22FF00"/>
<path d="M28.8581 20.7403C28.8214 20.829 28.7838 20.9174 28.7454 21.0053L15 15L28.8581 20.7403Z" fill="#1EFF00"/>
<path d="M28.7558 20.9813C28.7175 21.0694 28.6784 21.157 28.6384 21.2443L15 15L28.7558 20.9813Z" fill="#1AFF00"/>
<path d="M28.6493 21.2205C28.6095 21.3078 28.5689 21.3948 28.5274 21.4814L15 15L28.6493 21.2205Z" fill="#15FF00"/>
<path d="M28.5389 21.4578C28.4975 21.5444 28.4554 21.6306 28.4124 21.7165L15 15L28.5389 21.4578Z" fill="#11FF00"/>
<path d="M28.4239 21.6931C28.3811 21.779 28.3374 21.8645 28.293 21.9495L15 15L28.4239 21.6931Z" fill="#0DFF00"/>
<path d="M28.305 21.9263C28.2607 22.0115 28.2155 22.0962 28.1696 22.1805L15 15L28.305 21.9263Z" fill="#09FF00"/>
<path d="M28.1822 22.1575C28.1364 22.2418 28.0897 22.3257 28.0423 22.4092L15 15L28.1822 22.1575Z" fill="#04FF00"/>
<path d="M28.0553 22.3864C28.0081 22.47 27.96 22.5531 27.9111 22.6357L15 15L28.0553 22.3864Z" fill="#00FF00"/>
<path d="M27.9243 22.6132C27.8755 22.6959 27.826 22.7781 27.7757 22.8599L15 15L27.9243 22.6132Z" fill="#00FF04"/>
<path d="M27.7895 22.8376C27.7394 22.9194 27.6884 23.0008 27.6367 23.0817L15 15L27.7895 22.8376Z" fill="#00FF09"/>
<path d="M27.6509 23.0596C27.5993 23.1405 27.5469 23.221 27.4938 23.301L15 15L27.6509 23.0596Z" fill="#00FF0D"/>
<path d="M27.5082 23.2791C27.4552 23.3592 27.4015 23.4387 27.347 23.5177L15 15L27.5082 23.2791Z" fill="#00FF11"/>
<path d="M27.3618 23.4962C27.3074 23.5753 27.2523 23.6539 27.1964 23.7319L15 15L27.3618 23.4962Z" fill="#00FF15"/>
<path d="M27.2117 23.7106C27.156 23.7888 27.0995 23.8664 27.0423 23.9435L15 15L27.2117 23.7106Z" fill="#00FF1A"/>
<path d="M27.0578 23.9223C27.0007 23.9994 26.9428 24.076 26.8843 24.1521L15 15L27.0578 23.9223Z" fill="#00FF1E"/>
<path d="M26.9002 24.1315C26.8418 24.2077 26.7826 24.2833 26.7227 24.3583L15 15L26.9002 24.1315Z" fill="#00FF22"/>
<path d="M26.739 24.3378C26.6793 24.4129 26.6188 24.4875 26.5576 24.5614L15 15L26.739 24.3378Z" fill="#00FF26"/>
<path d="M26.5744 24.5411C26.5133 24.6152 26.4515 24.6886 26.3891 24.7615L15 15L26.5744 24.5411Z" fill="#00FF2B"/>
<path d="M26.4061 24.7418C26.3438 24.8148 26.2807 24.8872 26.217 24.959L15 15L26.4061 24.7418Z" fill="#00FF2F"/>
<path d="M26.2343 24.9394C26.1707 25.0113 26.1064 25.0826 26.0415 25.1532L15 15L26.2343 24.9394Z" fill="#00FF33"/>
<path d="M26.0591 25.1339C25.9942 25.2047 25.9287 25.2749 25.8625 25.3444L15 15L26.0591 25.1339Z" fill="#00FF37"/>
<path d="M25.8805 25.3254C25.8144 25.395 25.7477 25.464 25.6803 25.5324L15 15L25.8805 25.3254Z" fill="#00FF3C"/>
<path d="M25.6988 25.5137C25.6315 25.5822 25.5635 25.65 25.4949 25.7172L15 15L25.6988 25.5137Z" fill="#00FF40"/>
<path d="M25.5135 25.6987C25.4451 25.766 25.376 25.8326 25.3062 25.8985L15 15L25.5135 25.6987Z" fill="#00FF44"/>
<path d="M25.3253 25.8807C25.2557 25.9468 25.1854 26.0122 25.1145 26.0769L15 15L25.3253 25.8807Z" fill="#00FF48"/>
<path d="M25.1337 26.0592C25.0629 26.1241 24.9915 26.1883 24.9195 26.2518L15 15L25.1337 26.0592Z" fill="#00FF4D"/>
<path d="M24.9392 26.2344C24.8673 26.298 24.7948 26.361 24.7217 26.4232L15 15L24.9392 26.2344Z" fill="#00FF51"/>
<path d="M24.7417 26.4062C24.6687 26.4685 24.5951 26.5302 24.521 26.5911L15 15L24.7417 26.4062Z" fill="#00FF55"/>
<path d="M24.5411 26.5743C24.467 26.6353 24.3924 26.6957 24.3171 26.7553L15 15L24.5411 26.5743Z" fill="#00FF59"/>
<path d="M24.3375 26.7392C24.2624 26.799 24.1867 26.858 24.1105 26.9163L15 15L24.3375 26.7392Z" fill="#00FF5E"/>
<path d="M24.1312 26.9004C24.0551 26.9588 23.9784 27.0165 23.9011 27.0735L15 15L24.1312 26.9004Z" fill="#00FF62"/>
<path d="M23.9223 27.0579C23.8452 27.115 23.7675 27.1714 23.6892 27.227L15 15L23.9223 27.0579Z" fill="#00FF66"/>
<path d="M23.7105 27.2118C23.6324 27.2676 23.5537 27.3226 23.4745 27.3768L15 15L23.7105 27.2118Z" fill="#00FF6A"/>
<path d="M23.4961 27.362C23.417 27.4164 23.3374 27.47 23.2572 27.5228L15 15L23.4961 27.362Z" fill="#00FF6F"/>
<path d="M23.279 27.5084C23.1989 27.5614 23.1184 27.6136 23.0373 27.665L15 15L23.279 27.5084Z" fill="#00FF73"/>
<path d="M23.0594 27.651C22.9784 27.7025 22.897 27.7533 22.8151 27.8033L15 15L23.0594 27.651Z" fill="#00FF77"/>
<path d="M22.8373 27.7897C22.7555 27.8398 22.6731 27.8892 22.5903 27.9378L15 15L22.8373 27.7897Z" fill="#00FF7B"/>
<path d="M22.6129 27.9245C22.5302 27.9732 22.4471 28.0212 22.3634 28.0683L15 15L22.6129 27.9245Z" fill="#00FF80"/>
<path d="M22.3862 28.0554C22.3026 28.1027 22.2186 28.1492 22.1342 28.1948L15 15L22.3862 28.0554Z" fill="#00FF84"/>
<path d="M22.1573 28.1823C22.0729 28.2281 21.9881 28.2731 21.9029 28.3173L15 15L22.1573 28.1823Z" fill="#00FF88"/>
<path d="M21.9261 28.3053C21.841 28.3496 21.7554 28.3931 21.6694 28.4358L15 15L21.9261 28.3053Z" fill="#00FF8C"/>
<path d="M21.6929 28.4241C21.607 28.4669 21.5207 28.5089 21.434 28.5501L15 15L21.6929 28.4241Z" fill="#00FF91"/>
<path d="M21.4577 28.5389C21.371 28.5802 21.284 28.6207 21.1966 28.6603L15 15L21.4577 28.5389Z" fill="#00FF95"/>
<path d="M21.2204 28.6495C21.133 28.6893 21.0453 28.7283 20.9572 28.7664L15 15L21.2204 28.6495Z" fill="#00FF99"/>
<path d="M20.9811 28.756C20.893 28.7943 20.8046 28.8317 20.7159 28.8683L15 15L20.9811 28.756Z" fill="#00FF9D"/>
<path d="M20.7403 28.8583C20.6516 28.895 20.5626 28.9309 20.4732 28.9659L15 15L20.7403 28.8583Z" fill="#00FFA2"/>
<path d="M20.4974 28.9564C20.4081 28.9915 20.3184 29.0259 20.2285 29.0593L15 15L20.4974 28.9564Z" fill="#00FFA6"/>
<path d="M20.2532 29.0502C20.1633 29.0838 20.0731 29.1165 19.9825 29.1484L15 15L20.2532 29.0502Z" fill="#00FFAA"/>
<path d="M20.0071 29.1397C19.9166 29.1718 19.8258 29.2029 19.7347 29.2332L15 15L20.0071 29.1397Z" fill="#00FFAE"/>
<path d="M19.7595 29.2249C19.6684 29.2554 19.5771 29.285 19.4855 29.3137L15 15L19.7595 29.2249Z" fill="#00FFB3"/>
<path d="M19.5105 29.3058C19.4189 29.3347 19.3271 29.3627 19.235 29.3898L15 15L19.5105 29.3058Z" fill="#00FFB7"/>
<path d="M19.2601 29.3824C19.1681 29.4097 19.0758 29.436 18.9833 29.4615L15 15L19.2601 29.3824Z" fill="#00FFBB"/>
<path d="M19.0085 29.4545C18.916 29.4802 18.8232 29.505 18.7303 29.5288L15 15L19.0085 29.4545Z" fill="#00FFBF"/>
<path d="M18.7556 29.5223C18.6627 29.5463 18.5695 29.5695 18.4762 29.5917L15 15L18.7556 29.5223Z" fill="#00FFC4"/>
<path d="M18.5015 29.5856C18.4082 29.608 18.3146 29.6296 18.2209 29.6502L15 15L18.5015 29.5856Z" fill="#00FFC8"/>
<path d="M18.2465 29.6445C18.1528 29.6653 18.0589 29.6852 17.9648 29.7042L15 15L18.2465 29.6445Z" fill="#00FFCC"/>
<path d="M17.9905 29.699C17.8964 29.7181 17.8021 29.7363 17.7077 29.7537L15 15L17.9905 29.699Z" fill="#00FFD0"/>
<path d="M17.7335 29.7489C17.6391 29.7664 17.5445 29.783 17.4498 29.7987L15 15L17.7335 29.7489Z" fill="#00FFD5"/>
<path d="M17.4758 29.7944C17.3811 29.8102 17.2863 29.8252 17.1913 29.8392L15 15L17.4758 29.7944Z" fill="#00FFD9"/>
<path d="M17.2171 29.8353C17.1222 29.8495 17.0271 29.8628 16.9319 29.8752L15 15L17.2171 29.8353Z" fill="#00FFDD"/>
<path d="M16.9579 29.8718C16.8627 29.8843 16.7674 29.8959 16.672 29.9066L15 15L16.9579 29.8718Z" fill="#00FFE1"/>
<path d="M16.698 29.9035C16.6027 29.9144 16.5072 29.9243 16.4116 29.9333L15 15L16.698 29.9035Z" fill="#00FFE6"/>
<path d="M16.4376 29.931C16.3421 29.9402 16.2464 29.9485 16.1507 29.9559L15 15L16.4376 29.931Z" fill="#00FFEA"/>
<path d="M16.1769 29.9539C16.0812 29.9614 15.9854 29.968 15.8896 29.9737L15 15L16.1769 29.9539Z" fill="#00FFEE"/>
<path d="M15.9157 29.9721C15.8199 29.978 15.724 29.9829 15.6281 29.9869L15 15L15.9157 29.9721Z" fill="#00FFF2"/>
<path d="M15.6542 29.9857C15.5583 29.9899 15.4624 29.9932 15.3665 29.9955L15 15L15.6542 29.9857Z" fill="#00FFF7"/>
<path d="M15.3926 29.9949C15.2967 29.9974 15.2007 29.999 15.1047 29.9996L15 15L15.3926 29.9949Z" fill="#00FFFB"/>
<path d="M15.1308 29.9992C15.0348 30.0001 14.9389 30 14.8429 29.999L14.9999 15L15.1308 29.9992Z" fill="#00FFFF"/>
<path d="M14.8691 29.9995C14.7731 29.9987 14.6771 29.9969 14.5812 29.9942L14.9999 15L14.8691 29.9995Z" fill="#00FBFF"/>
<path d="M14.6074 29.9949C14.5114 29.9923 14.4155 29.9889 14.3196 29.9846L15 15L14.6074 29.9949Z" fill="#00F7FF"/>
<path d="M14.3457 29.9858C14.2498 29.9816 14.1539 29.9765 14.0581 29.9705L15 15L14.3457 29.9858Z" fill="#00F2FF"/>
<path d="M14.0844 29.9721C13.9886 29.9662 13.8928 29.9595 13.7971 29.9518L15.0001 15L14.0844 29.9721Z" fill="#00EEFF"/>
<path d="M13.8231 29.9539C13.7274 29.9463 13.6318 29.9379 13.5363 29.9285L15.0001 15L13.8231 29.9539Z" fill="#00EAFF"/>
<path d="M13.5623 29.931C13.4667 29.9218 13.3712 29.9117 13.2759 29.9007L15 15L13.5623 29.931Z" fill="#00E6FF"/>
<path d="M13.302 29.9037C13.2067 29.8928 13.1114 29.881 13.0162 29.8683L15.0001 15L13.302 29.9037Z" fill="#00E1FF"/>
<path d="M13.0421 29.8718C12.9469 29.8592 12.8519 29.8458 12.757 29.8314L15.0001 15L13.0421 29.8718Z" fill="#00DDFF"/>
<path d="M12.7828 29.8351C12.6879 29.821 12.5931 29.8059 12.4984 29.7899L14.9999 15L12.7828 29.8351Z" fill="#00D9FF"/>
<path d="M12.5243 29.7944C12.4296 29.7785 12.3351 29.7618 12.2407 29.7441L14.9999 15L12.5243 29.7944Z" fill="#00D5FF"/>
<path d="M12.2664 29.7489C12.172 29.7314 12.0778 29.713 11.9838 29.6937L15 15L12.2664 29.7489Z" fill="#00D0FF"/>
<path d="M12.0095 29.699C11.9155 29.6798 11.8216 29.6598 11.7279 29.6388L14.9999 15L12.0095 29.699Z" fill="#00CCFF"/>
<path d="M11.7533 29.6445C11.6596 29.6238 11.5661 29.6021 11.4728 29.5795L15 15L11.7533 29.6445Z" fill="#00C8FF"/>
<path d="M11.4982 29.5856C11.4049 29.5632 11.3118 29.5399 11.2189 29.5157L15 15L11.4982 29.5856Z" fill="#00C4FF"/>
<path d="M11.2443 29.5223C11.1514 29.4983 11.0586 29.4733 10.9662 29.4475L15.0001 15L11.2443 29.5223Z" fill="#00BFFF"/>
<path d="M10.9914 29.4544C10.8989 29.4287 10.8066 29.4022 10.7146 29.3747L15 15L10.9914 29.4544Z" fill="#00BBFF"/>
<path d="M10.7397 29.3824C10.6476 29.3551 10.5559 29.327 10.4644 29.2979L15 15L10.7397 29.3824Z" fill="#00B7FF"/>
<path d="M10.4894 29.3057C10.3978 29.2768 10.3066 29.2471 10.2156 29.2164L15 15L10.4894 29.3057Z" fill="#00B3FF"/>
<path d="M10.2403 29.2249C10.1493 29.1945 10.0586 29.1632 9.96814 29.131L14.9999 15L10.2403 29.2249Z" fill="#00AEFF"/>
<path d="M9.99282 29.1397C9.90233 29.1077 9.81215 29.0748 9.72229 29.041L15 15L9.99282 29.1397Z" fill="#00AAFF"/>
<path d="M9.74691 29.0502C9.65699 29.0166 9.5674 28.9821 9.47815 28.9467L15 15L9.74691 29.0502Z" fill="#00A6FF"/>
<path d="M9.50239 28.9564C9.41307 28.9212 9.3241 28.8851 9.23547 28.8482L15 15L9.50239 28.9564Z" fill="#00A2FF"/>
<path d="M9.25974 28.8583C9.17105 28.8215 9.08272 28.784 8.99475 28.7455L15.0001 15L9.25974 28.8583Z" fill="#009DFF"/>
<path d="M9.01871 28.756C8.93068 28.7177 8.84302 28.6786 8.75574 28.6386L14.9999 15L9.01871 28.756Z" fill="#0099FF"/>
<path d="M8.77957 28.6495C8.69222 28.6097 8.60525 28.5691 8.51868 28.5276L15.0001 15L8.77957 28.6495Z" fill="#0095FF"/>
<path d="M8.54229 28.5389C8.45564 28.4975 8.3694 28.4554 8.28357 28.4124L14.9999 15L8.54229 28.5389Z" fill="#0091FF"/>
<path d="M8.30713 28.4241C8.22122 28.3813 8.13573 28.3376 8.05066 28.2931L15 15L8.30713 28.4241Z" fill="#008CFF"/>
<path d="M8.07385 28.3051C7.9887 28.2607 7.90398 28.2156 7.8197 28.1697L15.0001 15L8.07385 28.3051Z" fill="#0088FF"/>
<path d="M7.84257 28.1822C7.75821 28.1364 7.67429 28.0897 7.59082 28.0423L15 15L7.84257 28.1822Z" fill="#0084FF"/>
<path d="M7.61365 28.0554C7.5301 28.0082 7.44701 27.9601 7.36438 27.9112L15 15L7.61365 28.0554Z" fill="#0080FF"/>
<path d="M7.38697 27.9245C7.30426 27.8758 7.22202 27.8263 7.14026 27.776L15 15L7.38697 27.9245Z" fill="#007BFF"/>
<path d="M7.16242 27.7897C7.08057 27.7395 6.99921 27.6886 6.91833 27.6369L14.9999 15L7.16242 27.7897Z" fill="#0077FF"/>
<path d="M6.94048 27.651C6.85952 27.5994 6.77905 27.547 6.6991 27.4939L15.0001 15L6.94048 27.651Z" fill="#0072FF"/>
<path d="M6.7209 27.5084C6.64085 27.4554 6.56132 27.4016 6.4823 27.3471L15 15L6.7209 27.5084Z" fill="#006FFF"/>
<path d="M6.50394 27.362C6.42483 27.3076 6.34624 27.2525 6.26819 27.1966L15 15L6.50394 27.362Z" fill="#006AFF"/>
<path d="M6.28947 27.2118C6.21132 27.1561 6.13371 27.0996 6.05664 27.0424L15.0001 15L6.28947 27.2118Z" fill="#0066FF"/>
<path d="M6.07762 27.0579C6.00045 27.0008 5.92383 26.943 5.84778 26.8844L15 15L6.07762 27.0579Z" fill="#0062FF"/>
<path d="M5.8685 26.9004C5.79234 26.842 5.71675 26.7828 5.64172 26.7229L15 15L5.8685 26.9004Z" fill="#005EFF"/>
<path d="M5.66224 26.7392C5.58711 26.6795 5.51256 26.619 5.4386 26.5578L15.0001 15L5.66224 26.7392Z" fill="#0059FF"/>
<path d="M5.45885 26.5745C5.38477 26.5134 5.31129 26.4516 5.2384 26.3892L15.0001 15L5.45885 26.5745Z" fill="#0055FF"/>
<path d="M5.25819 26.4062C5.18519 26.3438 5.1128 26.2808 5.04102 26.2171L15 15L5.25819 26.4062Z" fill="#0051FF"/>
<path d="M5.06064 26.2344C4.98875 26.1708 4.91746 26.1065 4.8468 26.0415L14.9999 15L5.06064 26.2344Z" fill="#004DFF"/>
<path d="M4.86608 26.0593C4.7953 25.9944 4.72516 25.9289 4.65564 25.8627L14.9999 15L4.86608 26.0593Z" fill="#0048FF"/>
<path d="M4.67463 25.8805C4.605 25.8144 4.536 25.7477 4.46765 25.6803L15 15L4.67463 25.8805Z" fill="#0044FF"/>
<path d="M4.48641 25.6989C4.41794 25.6316 4.35012 25.5636 4.28296 25.495L15.0001 15L4.48641 25.6989Z" fill="#0040FF"/>
<path d="M4.30118 25.5135C4.2339 25.4451 4.16728 25.376 4.10132 25.3062L15 15L4.30118 25.5135Z" fill="#003CFF"/>
<path d="M4.11931 25.3254C4.05323 25.2558 3.98782 25.1855 3.9231 25.1146L14.9999 15L4.11931 25.3254Z" fill="#0037FF"/>
<path d="M3.9408 25.1338C3.87595 25.063 3.81177 24.9916 3.74829 24.9196L15 15L3.9408 25.1338Z" fill="#0033FF"/>
<path d="M3.76564 24.9392C3.70204 24.8673 3.63912 24.7948 3.5769 24.7217L15 15L3.76564 24.9392Z" fill="#002FFF"/>
<path d="M3.59385 24.7418C3.53151 24.6688 3.46987 24.5952 3.40894 24.521L15 15L3.59385 24.7418Z" fill="#002BFF"/>
<path d="M3.42566 24.5413C3.3646 24.4672 3.30425 24.3925 3.24463 24.3173L15 15L3.42566 24.5413Z" fill="#0026FF"/>
<path d="M3.26084 24.3376C3.20108 24.2625 3.14204 24.1868 3.08374 24.1106L15 15L3.26084 24.3376Z" fill="#0022FF"/>
<path d="M3.09962 24.1313C3.04118 24.0552 2.98348 23.9785 2.92651 23.9012L15 15L3.09962 24.1313Z" fill="#001EFF"/>
<path d="M2.94214 23.9224C2.88504 23.8453 2.82868 23.7676 2.77307 23.6893L15.0001 15L2.94214 23.9224Z" fill="#001AFF"/>
<path d="M2.78826 23.7106C2.73252 23.6325 2.67752 23.5538 2.62329 23.4746L14.9999 15L2.78826 23.7106Z" fill="#0015FF"/>
<path d="M2.63812 23.4962C2.58375 23.4171 2.53014 23.3374 2.47729 23.2573L14.9999 15L2.63812 23.4962Z" fill="#0011FF"/>
<path d="M2.49172 23.2791C2.43873 23.1991 2.38652 23.1185 2.33508 23.0375L15.0001 15L2.49172 23.2791Z" fill="#000DFF"/>
<path d="M2.34917 23.0594C2.29759 22.9784 2.24679 22.897 2.19678 22.8151L15 15L2.34917 23.0594Z" fill="#0009FF"/>
<path d="M2.21036 22.8374C2.1602 22.7555 2.11083 22.6732 2.06226 22.5904L15 15L2.21036 22.8374Z" fill="#0004FF"/>
<path d="M2.07553 22.6132C2.02681 22.5305 1.97889 22.4473 1.93176 22.3636L15 15L2.07553 22.6132Z" fill="#0000FF"/>
<path d="M1.94469 22.3863C1.89742 22.3027 1.85096 22.2187 1.8053 22.1343L15.0001 15L1.94469 22.3863Z" fill="#0400FF"/>
<path d="M1.81771 22.1575C1.77191 22.0731 1.72692 21.9883 1.68274 21.9031L15 15L1.81771 22.1575Z" fill="#0900FF"/>
<path d="M1.69484 21.9261C1.65052 21.841 1.60701 21.7554 1.56433 21.6694L15 15L1.69484 21.9261Z" fill="#0D00FF"/>
<path d="M1.57596 21.6931C1.53313 21.6072 1.49113 21.5208 1.44995 21.4341L14.9999 15L1.57596 21.6931Z" fill="#1100FF"/>
<path d="M1.4612 21.4578C1.41987 21.3711 1.37938 21.2841 1.33972 21.1967L15.0001 15L1.4612 21.4578Z" fill="#1500FF"/>
<path d="M1.35054 21.2205C1.31073 21.1331 1.27177 21.0454 1.23364 20.9573L14.9999 15L1.35054 21.2205Z" fill="#1A00FF"/>
<path d="M1.24413 20.9813C1.20585 20.8933 1.16842 20.8049 1.13184 20.7161L15.0001 15L1.24413 20.9813Z" fill="#1E00FF"/>
<path d="M1.14182 20.7403C1.10509 20.6517 1.06921 20.5626 1.03418 20.4732L15 15L1.14182 20.7403Z" fill="#2200FF"/>
<path d="M1.04376 20.4976C1.00858 20.4083 0.974257 20.3186 0.940796 20.2287L15.0001 15L1.04376 20.4976Z" fill="#2600FF"/>
<path d="M0.949942 20.2532C0.916324 20.1633 0.88357 20.073 0.851685 19.9825L15.0001 15L0.949942 20.2532Z" fill="#2B00FF"/>
<path d="M0.860363 20.0072C0.82832 19.9167 0.797146 19.8259 0.766846 19.7348L14.9999 15L0.860363 20.0072Z" fill="#2F00FF"/>
<path d="M0.775151 19.7597C0.744692 19.6686 0.715107 19.5773 0.686401 19.4857L14.9999 15L0.775151 19.7597Z" fill="#3300FF"/>
<path d="M0.694185 19.5107C0.665319 19.4191 0.637333 19.3273 0.610229 19.2352L15 15L0.694185 19.5107Z" fill="#3700FF"/>
<path d="M0.61771 19.2603C0.590446 19.1683 0.564066 19.076 0.538574 18.9834L15.0001 15L0.61771 19.2603Z" fill="#3C00FF"/>
<path d="M0.545482 19.0087C0.519829 18.9162 0.495064 18.8234 0.471191 18.7304L15 15L0.545482 19.0087Z" fill="#4000FF"/>
<path d="M0.477749 18.7558C0.453714 18.6629 0.430572 18.5697 0.408325 18.4763L15 15L0.477749 18.7558Z" fill="#4400FF"/>
<path d="M0.414389 18.5018C0.391979 18.4084 0.370467 18.3149 0.349854 18.2211L14.9999 15L0.414389 18.5018Z" fill="#4800FF"/>
<path d="M0.355526 18.2467C0.334749 18.153 0.314872 18.059 0.295898 17.9649L15 15L0.355526 18.2467Z" fill="#4D00FF"/>
<path d="M0.301162 17.9906C0.282024 17.8965 0.263789 17.8023 0.24646 17.7079L15.0001 15L0.301162 17.9906Z" fill="#5100FF"/>
<path d="M0.251175 17.7336C0.233681 17.6392 0.217094 17.5447 0.201416 17.45L15 15L0.251175 17.7336Z" fill="#5500FF"/>
<path d="M0.20569 17.4758C0.189846 17.3811 0.174912 17.2863 0.160889 17.1913L15 15L0.20569 17.4758Z" fill="#5900FF"/>
<path d="M0.164707 17.2172C0.150519 17.1223 0.137242 17.0272 0.124878 16.932L15 15L0.164707 17.2172Z" fill="#5E00FF"/>
<path d="M0.128351 16.9578C0.115822 16.8626 0.104206 16.7673 0.0935059 16.672L14.9999 15L0.128351 16.9578Z" fill="#6200FF"/>
<path d="M0.0963798 16.6981C0.0855131 16.6028 0.0755621 16.5073 0.0665283 16.4117L14.9999 15L0.0963798 16.6981Z" fill="#6600FF"/>
<path d="M0.0690378 16.4378C0.0598372 16.3422 0.051554 16.2466 0.0441895 16.1509L14.9999 15L0.0690378 16.4378Z" fill="#6A00FF"/>
<path d="M0.0462046 16.177C0.038673 16.0813 0.0320602 15.9855 0.0263672 15.8897L14.9999 15L0.0462046 16.177Z" fill="#6F00FF"/>
<path d="M0.0280042 15.9158C0.0221438 15.82 0.0172034 15.7241 0.0131836 15.6282L15.0001 15L0.0280042 15.9158Z" fill="#7300FF"/>
<path d="M0.0141936 15.6544C0.0100064 15.5585 0.00673988 15.4625 0.00439453 15.3665L15 15L0.0141936 15.6544Z" fill="#7700FF"/>
<path d="M0.00514077 15.3927C0.00262797 15.2968 0.00103637 15.2008 0.000366211 15.1047L14.9999 15L0.00514077 15.3927Z" fill="#7B00FF"/>
<path d="M0.00057116 15.1311C-0.000266541 15.0351 -0.00018277 14.939 0.000822462 14.843L15.0001 15.0001L0.00057116 15.1311Z" fill="#8000FF"/>
<path d="M0.000610352 14.8692C0.00144805 14.7732 0.00320717 14.6773 0.00588749 14.5813L15.0001 15.0001L0.000610352 14.8692Z" fill="#8400FF"/>
<path d="M0.00512695 14.6074C0.00763976 14.5114 0.0110737 14.4155 0.0154282 14.3196L14.9999 15L0.00512695 14.6074Z" fill="#8800FF"/>
<path d="M0.0142822 14.3457C0.0184694 14.2498 0.0235772 14.1539 0.0296047 14.0581L15.0001 15L0.0142822 14.3457Z" fill="#8C00FF"/>
<path d="M0.0279541 14.0844C0.0338144 13.9886 0.0405942 13.8928 0.0482928 13.7971L14.9999 15.0001L0.0279541 14.0844Z" fill="#9100FF"/>
<path d="M0.0462646 13.8232C0.0537962 13.7275 0.0622462 13.6319 0.0716135 13.5364L15 15.0001L0.0462646 13.8232Z" fill="#9500FF"/>
<path d="M0.0690918 13.5625C0.0782924 13.4669 0.08841 13.3715 0.0994432 13.2761L15 15.0002L0.0690918 13.5625Z" fill="#9900FF"/>
<path d="M0.0964355 13.3019C0.107302 13.2065 0.119084 13.1113 0.13178 13.0161L15 14.9999L0.0964355 13.3019Z" fill="#9D00FF"/>
<path d="M0.128296 13.042C0.140826 12.9468 0.154269 12.8518 0.168623 12.7568L15 14.9999L0.128296 13.042Z" fill="#A200FF"/>
<path d="M0.164795 12.7829C0.178984 12.688 0.194084 12.5932 0.210093 12.4985L15.0001 15L0.164795 12.7829Z" fill="#A600FF"/>
<path d="M0.205688 12.5243C0.221532 12.4296 0.238284 12.3351 0.255943 12.2407L15 15L0.205688 12.5243Z" fill="#AA00FF"/>
<path d="M0.251099 12.2665C0.268592 12.1721 0.286991 12.0779 0.306294 11.9839L15 15.0001L0.251099 12.2665Z" fill="#AE00FF"/>
<path d="M0.301147 12.0097C0.320285 11.9156 0.340326 11.8217 0.361266 11.728L15 15.0002L0.301147 12.0097Z" fill="#B300FF"/>
<path d="M0.355591 11.7534C0.376368 11.6597 0.398044 11.5662 0.420616 11.4729L15 15L0.355591 11.7534Z" fill="#B700FF"/>
<path d="M0.414429 11.4984C0.436838 11.405 0.460143 11.3119 0.484339 11.219L14.9999 15L0.414429 11.4984Z" fill="#BB00FF"/>
<path d="M0.477783 11.2444C0.501818 11.1515 0.526745 11.0588 0.552559 10.9663L15 15.0002L0.477783 11.2444Z" fill="#BF00FF"/>
<path d="M0.545532 10.9916C0.571185 10.8991 0.597726 10.8068 0.62515 10.7148L14.9999 15.0001L0.545532 10.9916Z" fill="#C400FF"/>
<path d="M0.617676 10.7397C0.64494 10.6476 0.673086 10.5559 0.702112 10.4644L15 14.9999L0.617676 10.7397Z" fill="#C800FF"/>
<path d="M0.694214 10.4894C0.72308 10.3978 0.752824 10.3066 0.783442 10.2156L15 14.9999L0.694214 10.4894Z" fill="#CC00FF"/>
<path d="M0.775146 10.2405C0.805606 10.1494 0.836938 10.0587 0.869139 9.96826L14.9999 14.9999L0.775146 10.2405Z" fill="#D000FF"/>
<path d="M0.860352 9.99293C0.892395 9.90245 0.925306 9.81227 0.959081 9.72241L15 15L0.860352 9.99293Z" fill="#D500FF"/>
<path d="M0.949951 9.74702C0.983569 9.65711 1.01805 9.56752 1.05339 9.47827L15.0001 15L0.949951 9.74702Z" fill="#D900FF"/>
<path d="M1.0437 9.5025C1.07888 9.41319 1.11492 9.32422 1.15181 9.2356L15 14.9999L1.0437 9.5025Z" fill="#DD00FF"/>
<path d="M1.14172 9.25961C1.17846 9.17093 1.21604 9.08259 1.25448 8.99463L14.9999 14.9999L1.14172 9.25961Z" fill="#E100FF"/>
<path d="M1.24402 9.01883C1.2823 8.9308 1.32142 8.84314 1.36138 8.75586L14.9999 15L1.24402 9.01883Z" fill="#E600FF"/>
<path d="M1.35059 8.77968C1.39039 8.69233 1.43104 8.60537 1.47252 8.5188L15 15L1.35059 8.77968Z" fill="#EA00FF"/>
<path d="M1.46118 8.54241C1.50251 8.45577 1.54466 8.36952 1.58765 8.28369L14.9999 15L1.46118 8.54241Z" fill="#EE00FF"/>
<path d="M1.57593 8.30701C1.61876 8.2211 1.66242 8.13561 1.70689 8.05054L14.9999 14.9999L1.57593 8.30701Z" fill="#F200FF"/>
<path d="M1.69482 8.07373C1.73915 7.98858 1.78429 7.90386 1.83024 7.81958L14.9999 14.9999L1.69482 8.07373Z" fill="#F700FF"/>
<path d="M1.81775 7.84281C1.86355 7.75845 1.91017 7.67453 1.95758 7.59106L14.9999 15.0001L1.81775 7.84281Z" fill="#FB00FF"/>
<path d="M1.9447 7.61377C1.99197 7.53022 2.04004 7.44713 2.08891 7.3645L15 15L1.9447 7.61377Z" fill="#FF00FF"/>
<path d="M2.07556 7.38709C2.12428 7.30438 2.1738 7.22214 2.2241 7.14038L15.0001 15.0001L2.07556 7.38709Z" fill="#FF00FB"/>
<path d="M2.21033 7.16254C2.26048 7.08069 2.31142 6.99933 2.36314 6.91846L14.9999 15.0001L2.21033 7.16254Z" fill="#FF00F7"/>
<path d="M2.34912 6.9406C2.4007 6.85964 2.45305 6.77917 2.50617 6.69922L15 15L2.34912 6.9406Z" fill="#FF00F2"/>
<path d="M2.4917 6.72102C2.54468 6.64098 2.59843 6.56144 2.65294 6.48242L14.9999 15.0001L2.4917 6.72102Z" fill="#FF00EE"/>
<path d="M2.63806 6.50406C2.69243 6.42495 2.74756 6.34636 2.80344 6.26831L14.9999 15.0002L2.63806 6.50406Z" fill="#FF00EA"/>
<path d="M2.78821 6.28947C2.84395 6.21132 2.90045 6.13371 2.95768 6.05664L15 14.9999L2.78821 6.28947Z" fill="#FF00E6"/>
<path d="M2.94214 6.07774C2.99924 6.00057 3.05708 5.92396 3.11565 5.8479L15 15L2.94214 6.07774Z" fill="#FF00E1"/>
<path d="M3.09973 5.86862C3.15817 5.79246 3.21734 5.71687 3.27722 5.64185L15.0001 15L3.09973 5.86862Z" fill="#FF00DD"/>
<path d="M3.26086 5.66236C3.32062 5.58724 3.3811 5.51269 3.44229 5.43872L14.9999 15.0001L3.26086 5.66236Z" fill="#FF00D9"/>
<path d="M3.42566 5.45896C3.48672 5.38489 3.54849 5.31141 3.61096 5.23853L15.0001 15.0001L3.42566 5.45896Z" fill="#FF00D5"/>
<path d="M3.59387 5.25819C3.65622 5.18519 3.71926 5.1128 3.78299 5.04102L15 15L3.59387 5.25819Z" fill="#FF00D0"/>
<path d="M3.76562 5.06076C3.82923 4.98887 3.89353 4.91758 3.9585 4.84692L14.9999 15L3.76562 5.06076Z" fill="#FF00CC"/>
<path d="M3.9408 4.8662C4.00565 4.79543 4.07118 4.72528 4.13738 4.65576L15 15.0001L3.9408 4.8662Z" fill="#FF00C8"/>
<path d="M4.11938 4.67475C4.18546 4.60512 4.25221 4.53612 4.31961 4.46777L15 15.0001L4.11938 4.67475Z" fill="#FF00C4"/>
<path d="M4.30115 4.48641C4.36843 4.41794 4.43637 4.35012 4.50495 4.28296L14.9999 15L4.30115 4.48641Z" fill="#FF00BF"/>
<path d="M4.48633 4.30118C4.5548 4.2339 4.62391 4.16727 4.69365 4.10132L14.9999 14.9999L4.48633 4.30118Z" fill="#FF00BB"/>
<path d="M4.67468 4.11931C4.74431 4.05323 4.81458 3.98782 4.88547 3.9231L15 14.9999L4.67468 4.11931Z" fill="#FF00B7"/>
<path d="M4.86609 3.9408C4.93686 3.87594 5.00826 3.81177 5.08027 3.74829L15 14.9999L4.86609 3.9408Z" fill="#FF00B3"/>
<path d="M5.06067 3.76564C5.13256 3.70203 5.20507 3.63912 5.27817 3.5769L15 14.9999L5.06067 3.76564Z" fill="#FF00AE"/>
<path d="M5.25818 3.59385C5.33117 3.53151 5.40477 3.46987 5.47894 3.40894L15 14.9998L5.25818 3.59385Z" fill="#FF00AA"/>
<path d="M5.45886 3.42566C5.53293 3.3646 5.60759 3.30426 5.68282 3.24463L15.0001 15L5.45886 3.42566Z" fill="#FF00A6"/>
<path d="M5.66223 3.26084C5.73736 3.20108 5.81306 3.14204 5.88931 3.08374L15 14.9999L5.66223 3.26084Z" fill="#FF00A2"/>
<path d="M5.86853 3.09986C5.94469 3.04143 6.0214 2.98372 6.09867 2.92676L14.9999 15.0001L5.86853 3.09986Z" fill="#FF009D"/>
<path d="M6.07764 2.94226C6.1548 2.88516 6.23251 2.8288 6.31076 2.77319L14.9999 15.0001L6.07764 2.94226Z" fill="#FF0099"/>
<path d="M6.28943 2.78826C6.36758 2.73252 6.44626 2.67752 6.52547 2.62329L15 15L6.28943 2.78826Z" fill="#FF0095"/>
<path d="M6.50391 2.63812C6.58302 2.58375 6.66265 2.53014 6.74279 2.47729L15.0001 15L6.50391 2.63812Z" fill="#FF0091"/>
<path d="M6.72095 2.49184C6.801 2.43885 6.88155 2.38664 6.9626 2.33521L15 15.0002L6.72095 2.49184Z" fill="#FF008C"/>
<path d="M6.94043 2.34917C7.02139 2.29759 7.10284 2.24679 7.18478 2.19678L14.9999 15.0001L6.94043 2.34917Z" fill="#FF0088"/>
<path d="M7.16248 2.21036C7.24432 2.1602 7.32665 2.11083 7.40945 2.06226L15 14.9999L7.16248 2.21036Z" fill="#FF0084"/>
<path d="M7.38696 2.07565C7.46967 2.02693 7.55285 1.97901 7.63648 1.93188L15.0001 15L7.38696 2.07565Z" fill="#FF0080"/>
<path d="M7.61365 1.94481C7.6972 1.89754 7.7812 1.85108 7.86564 1.80542L15.0001 15.0002L7.61365 1.94481Z" fill="#FF007B"/>
<path d="M7.84265 1.81784C7.92701 1.77203 8.01181 1.72704 8.09704 1.68286L15 15L7.84265 1.81784Z" fill="#FF0077"/>
<path d="M8.07373 1.69497C8.15888 1.65064 8.24445 1.60714 8.33044 1.56445L15.0001 15.0001L8.07373 1.69497Z" fill="#FF0073"/>
<path d="M8.30701 1.57597C8.39292 1.53313 8.47923 1.49113 8.56595 1.44995L15 14.9999L8.30701 1.57597Z" fill="#FF006F"/>
<path d="M8.54224 1.46132C8.62888 1.41999 8.71592 1.3795 8.80334 1.33984L15 15.0001L8.54224 1.46132Z" fill="#FF006A"/>
<path d="M8.77954 1.35054C8.86689 1.31073 8.95462 1.27177 9.04272 1.23364L15 14.9999L8.77954 1.35054Z" fill="#FF0066"/>
<path d="M9.01868 1.24412C9.10671 1.20585 9.19511 1.16842 9.28386 1.13184L15 14.9999L9.01868 1.24412Z" fill="#FF0062"/>
<path d="M9.25977 1.14182C9.34845 1.10509 9.43749 1.06921 9.52686 1.03418L15 14.9999L9.25977 1.14182Z" fill="#FF005E"/>
<path d="M9.50244 1.04388C9.59175 1.0087 9.6814 0.974379 9.77138 0.940918L14.9999 15.0001L9.50244 1.04388Z" fill="#FF0059"/>
<path d="M9.74683 0.950063C9.83674 0.916446 9.92698 0.883692 10.0175 0.851807L15 15.0001L9.74683 0.950063Z" fill="#FF0055"/>
<path d="M9.9928 0.860363C10.0833 0.82832 10.1741 0.797146 10.2652 0.766846L14.9999 15L9.9928 0.860363Z" fill="#FF0051"/>
<path d="M10.2404 0.775273C10.3314 0.744814 10.4227 0.715229 10.5143 0.686523L15 15.0001L10.2404 0.775273Z" fill="#FF004D"/>
<path d="M10.4895 0.694306C10.581 0.66544 10.6729 0.637454 10.765 0.610352L14.9999 15L10.4895 0.694306Z" fill="#FF0048"/>
<path d="M10.7399 0.617709C10.8319 0.590445 10.9242 0.564066 11.0168 0.538574L15.0001 14.9999L10.7399 0.617709Z" fill="#FF0044"/>
<path d="M10.9915 0.545483C11.084 0.519829 11.1767 0.495064 11.2697 0.471191L15 15L10.9915 0.545483Z" fill="#FF0040"/>
<path d="M11.2444 0.477871C11.3373 0.453836 11.4305 0.430694 11.5239 0.408447L14.9999 15.0001L11.2444 0.477871Z" fill="#FF003C"/>
<path d="M11.4984 0.414389C11.5918 0.39198 11.6853 0.370467 11.7791 0.349854L14.9999 15L11.4984 0.414389Z" fill="#FF0037"/>
<path d="M11.7534 0.355526C11.8471 0.334749 11.941 0.314872 12.0351 0.295898L14.9999 15L11.7534 0.355526Z" fill="#FF0033"/>
<path d="M12.0094 0.301284C12.1035 0.282146 12.1977 0.263911 12.2921 0.246582L14.9998 15.0002L12.0094 0.301284Z" fill="#FF002F"/>
<path d="M12.2665 0.251175C12.3609 0.233682 12.4554 0.217094 12.5501 0.201416L14.9999 15L12.2665 0.251175Z" fill="#FF002B"/>
<path d="M12.5243 0.20569C12.619 0.189846 12.7138 0.174912 12.8087 0.160889L14.9999 15L12.5243 0.20569Z" fill="#FF0026"/>
<path d="M12.7828 0.164829C12.8778 0.15064 12.9728 0.137363 13.068 0.125L14.9999 15L12.7828 0.164829Z" fill="#FF0022"/>
<path d="M13.0421 0.128352C13.1373 0.115822 13.2326 0.104206 13.328 0.0935059L15.0001 15L13.0421 0.128352Z" fill="#FF001E"/>
<path d="M13.302 0.0965021C13.3974 0.0856353 13.4929 0.0756842 13.5884 0.0666504L15 15.0001L13.302 0.0965021Z" fill="#FF001A"/>
<path d="M13.5623 0.0690375C13.6578 0.059837 13.7535 0.051554 13.8492 0.0441895L15 15L13.5623 0.0690375Z" fill="#FF0015"/>
<path d="M13.8231 0.0462044C13.9188 0.0386728 14.0146 0.0320602 14.1104 0.0263672L15 14.9999L13.8231 0.0462044Z" fill="#FF0011"/>
<path d="M14.0842 0.028004C14.1801 0.0221437 14.2759 0.0172034 14.3718 0.0131836L15 15.0001L14.0842 0.028004Z" fill="#FF000D"/>
<path d="M14.3457 0.0144372C14.4416 0.0102501 14.5375 0.00698392 14.6335 0.00463867L14.9999 15.0001L14.3457 0.0144372Z" fill="#FF0009"/>
<path d="M14.6073 0.00526299C14.7033 0.00275013 14.7993 0.00115846 14.8953 0.000488281L15 15.0001L14.6073 0.00526299Z" fill="#FF0004"/>
<path d="M15 29.9999C23.2843 29.9999 30.0001 23.2842 30.0001 15C30.0001 6.71571 23.2843 0 15 0C6.71575 0 0 6.71571 0 15C0 23.2842 6.71575 29.9999 15 29.9999Z" fill="url(#paint0_radial_43_405)"/>
<defs>
<radialGradient id="paint0_radial_43_405" cx="0" cy="0" r="1" gradientUnits="userSpaceOnUse" gradientTransform="translate(15 15) scale(15)">
<stop stop-color="white"/>
<stop offset="1" stop-color="white" stop-opacity="0"/>
</radialGradient>
</defs>
</svg>
