<svg width="400" height="669" viewBox="0 0 400 669" fill="none" xmlns="http://www.w3.org/2000/svg">
<rect x="198" width="4" height="268" fill="#DDE6FD"/>
<path d="M199.489 353H273.906L396 666H1L123.094 353H199.489Z" fill="url(#paint0_linear_50_2797)"/>
<path d="M219.119 283C196.108 283 209.557 283 199.063 283C188.57 283 199.38 283 181.119 283C181.119 273.059 189.625 265 200.119 265C210.612 265 219.119 273.059 219.119 283Z" fill="#0D369A"/>
<path d="M274.119 354C182.68 354 236.122 354 194.424 354C152.727 354 195.683 354 123.119 354C123.119 312.579 156.921 279 198.619 279C240.316 279 274.119 312.579 274.119 354Z" fill="url(#paint1_linear_50_2797)"/>
<ellipse cx="198.6" cy="353.5" rx="75.6" ry="12.5" fill="url(#paint2_linear_50_2797)"/>
<defs>
<linearGradient id="paint0_linear_50_2797" x1="217.298" y1="279.382" x2="-3.44015" y2="666.689" gradientUnits="userSpaceOnUse">
<stop stop-color="#DDE6FD"/>
<stop offset="1" stop-color="white" stop-opacity="0"/>
</linearGradient>
<linearGradient id="paint1_linear_50_2797" x1="146.119" y1="301.5" x2="272.619" y2="352.5" gradientUnits="userSpaceOnUse">
<stop stop-color="#183E9F"/>
<stop offset="1" stop-color="#4674E4"/>
</linearGradient>
<linearGradient id="paint2_linear_50_2797" x1="269.16" y1="358" x2="138.136" y2="346.317" gradientUnits="userSpaceOnUse">
<stop stop-color="#3057B4"/>
<stop offset="1" stop-color="#3055AF"/>
</linearGradient>
</defs>
</svg>
