<svg width="26" height="18" viewBox="0 0 26 18" fill="none" xmlns="http://www.w3.org/2000/svg">
<path d="M1.80002 17.4001H7.40002C8.17002 17.4001 8.80002 16.7701 8.80002 16.0001C8.80002 15.2301 8.17002 14.6001 7.40002 14.6001H1.80002C1.03002 14.6001 0.400024 15.2301 0.400024 16.0001C0.400024 16.7701 1.03002 17.4001 1.80002 17.4001ZM0.400024 2.0001C0.400024 2.7701 1.03002 3.4001 1.80002 3.4001H24.2C24.97 3.4001 25.6 2.7701 25.6 2.0001C25.6 1.2301 24.97 0.600098 24.2 0.600098H1.80002C1.03002 0.600098 0.400024 1.2301 0.400024 2.0001ZM1.80002 10.4001H15.8C16.57 10.4001 17.2 9.7701 17.2 9.0001C17.2 8.2301 16.57 7.6001 15.8 7.6001H1.80002C1.03002 7.6001 0.400024 8.2301 0.400024 9.0001C0.400024 9.7701 1.03002 10.4001 1.80002 10.4001Z" fill="#979595"/>
</svg>
